<svg width="146" height="146" viewBox="0 0 146 146" fill="none" xmlns="http://www.w3.org/2000/svg">
<circle cx="72.7317" cy="72.7317" r="70.7317" fill="#872AB0" stroke="#292929" stroke-width="4"/>
<path d="M32.209 69.0481C32.209 51.6826 32.209 42.9999 37.6157 37.6049C43.0224 32.21 51.7241 32.21 69.1275 32.21H76.5112C93.9146 32.21 102.616 32.21 108.023 37.6049C113.43 42.9999 113.43 51.6826 113.43 69.0481V76.4157C113.43 93.7812 113.43 102.464 108.023 107.859C102.616 113.254 93.9146 113.254 76.5112 113.254H69.1275C51.7241 113.254 43.0224 113.254 37.6157 107.859C32.209 102.464 32.209 93.7812 32.209 76.4157V69.0481Z" fill="white"/>
<path fill-rule="evenodd" clip-rule="evenodd" d="M79.7566 69.4824L88.7367 78.4801L97.6547 69.5395L101.568 73.4388L88.7367 86.3009L79.7566 77.3032L65.5948 91.4914L57.9965 83.8788L48.8996 92.9925L44.9863 89.0914L57.9965 76.058L65.5948 83.6706L79.7585 69.4824H79.7566Z" fill="#872AB0"/>
<path fill-rule="evenodd" clip-rule="evenodd" d="M79.7566 54.3125L88.7367 63.3102L97.6547 54.3696L101.568 58.2689L88.7367 71.131L79.7566 62.1332L65.5948 76.3214L57.9965 68.7088L48.8996 77.8226L44.9863 73.9214L57.9965 60.8881L65.5948 68.5007L79.7585 54.3125H79.7566Z" fill="#872AB0"/>
</svg>
