<svg width="257" height="257" viewBox="0 0 257 257" fill="none" xmlns="http://www.w3.org/2000/svg">
<path d="M0 85.324C0 15.0597 15.0597 0 85.324 0H171.676C241.94 0 257 15.0597 257 85.324V171.676C257 241.94 241.94 257 171.676 257H85.324C15.0597 257 0 241.94 0 171.676V85.324Z" fill="#C4C4C4"/>
<g opacity="0.8" style="mix-blend-mode:hard-light">
<path fill-rule="evenodd" clip-rule="evenodd" d="M60.8246 174.816C68.4494 178.881 76.9945 180.913 86.4598 180.913C96.0566 180.913 104.536 178.75 111.898 174.423C118.546 170.398 123.908 164.876 127.983 157.857C132.432 165.162 138.409 170.815 145.916 174.816C153.541 178.881 162.086 180.913 171.552 180.913C181.148 180.913 189.628 178.75 196.99 174.423C204.352 169.966 210.136 163.673 214.343 155.545C218.55 147.416 220.653 137.846 220.653 126.834C220.653 116.346 218.484 107.365 214.146 99.8925C209.807 92.2887 203.891 86.4547 196.398 82.3906C188.905 78.3265 180.425 76.2944 170.96 76.2944C162.021 76.2944 153.738 78.5887 146.114 83.1772C139.27 87.2483 133.632 92.9051 129.201 100.148C129.152 100.062 129.103 99.9773 129.054 99.8925C124.716 92.2887 118.8 86.4547 111.306 82.3906C103.813 78.3265 95.3336 76.2944 85.8682 76.2944C76.9288 76.2944 68.6466 78.5887 61.0218 83.1772C53.5284 87.6346 47.4811 93.993 42.8799 102.252C38.4102 110.381 36.1753 119.885 36.1753 130.767C36.1753 140.993 38.3444 149.907 42.6827 157.511C47.1524 164.984 53.1997 170.752 60.8246 174.816ZM129.201 100.148C128.78 100.835 128.37 101.536 127.972 102.252C123.502 110.381 121.267 119.885 121.267 130.767C121.267 140.993 123.436 149.907 127.774 157.511C127.844 157.627 127.913 157.742 127.983 157.857C128.421 157.103 128.843 156.333 129.251 155.545C133.458 147.416 135.561 137.846 135.561 126.834C135.561 116.465 133.441 107.569 129.201 100.148ZM99.0803 161.444C96.451 164.984 92.5071 166.819 87.2486 166.95C81.8586 167.082 77.5204 165.115 74.2338 161.051C71.0787 156.856 68.7781 151.546 67.332 145.122C65.8859 138.698 65.1628 132.143 65.1628 125.457C65.1628 119.689 65.7544 114.182 66.9376 108.938C68.2522 103.563 70.3556 99.1059 73.2478 95.5662C76.2714 92.0265 80.3468 90.1911 85.4738 90.06C89.4177 89.9289 92.7043 91.1088 95.3336 93.5997C98.0943 96.0906 100.263 99.3681 101.841 103.432C103.419 107.496 104.536 112.019 105.193 117.001C105.982 121.983 106.376 126.899 106.376 131.75C106.376 137.256 105.851 142.697 104.799 148.072C103.747 153.447 101.841 157.905 99.0803 161.444ZM184.172 161.444C181.543 164.984 177.599 166.819 172.34 166.95C166.95 167.082 162.612 165.115 159.326 161.051C156.17 156.856 153.87 151.546 152.424 145.122C150.978 138.698 150.255 132.143 150.255 125.457C150.255 119.689 150.846 114.182 152.029 108.938C153.344 103.563 155.447 99.1059 158.34 95.5662C161.363 92.0265 165.439 90.1911 170.566 90.06C174.509 89.9289 177.796 91.1088 180.425 93.5997C183.186 96.0906 185.355 99.3681 186.933 103.432C188.51 107.496 189.628 112.019 190.285 117.001C191.074 121.983 191.468 126.899 191.468 131.75C191.468 137.256 190.942 142.697 189.891 148.072C188.839 153.447 186.933 157.905 184.172 161.444Z" fill="black"/>
</g>
</svg>
