<svg width="146" height="146" viewBox="0 0 146 146" fill="none" xmlns="http://www.w3.org/2000/svg">
<circle cx="72.7317" cy="72.7317" r="70.7317" fill="#CB492A" stroke="#292929" stroke-width="4"/>
<path d="M72.9463 33.4883C48.7345 33.4883 29.0918 53.1903 29.0918 77.5422C29.0918 101.864 48.7353 121.566 72.9463 121.566C97.1574 121.566 116.801 101.864 116.801 77.5422C116.802 53.1903 97.1582 33.4883 72.9463 33.4883ZM72.5205 63.8977C70.9675 63.8977 69.7183 65.1827 69.7183 66.7425C69.7183 68.3025 70.9667 69.5875 72.5205 69.5875C74.0733 69.5875 75.3523 68.3025 75.3523 66.7425C75.3523 65.1827 74.0733 63.8977 72.5205 63.8977ZM78.9766 42.5436C93.1992 44.7156 103.006 53.8938 106.751 65.0606C111.563 79.3478 105.137 99.2634 90.4887 104.74C78.764 109.114 62.0443 105.749 62.5924 92.4408C62.8364 87.1175 66.1256 82.7119 71.1809 81.0598C71.4249 80.9677 71.6985 80.8762 71.973 80.8148C68.1357 83.9354 68.1663 88.983 71.2421 92.5929C74.1964 96.0805 80.0438 98.2527 86.7439 94.7957C96.2758 89.8702 99.0475 80.8148 99.6873 76.5313C100.297 72.2479 101.819 61.1426 94.2664 52.3324C87.7478 44.6848 81.3826 42.9414 78.9766 42.5436ZM55.9223 56.2802C56.8972 59.9207 64.5108 58.5743 66.7334 58.5444C74.1642 58.4223 79.829 63.4085 80.5905 70.9347C80.5905 70.9347 83.4531 73.0154 84.9761 76.2272C86.4686 79.4393 86.1031 83.8449 86.1031 83.8449C86.1031 83.8449 81.7787 79.2249 75.2614 78.9194C56.2885 78.0014 52.2073 103.547 73.4341 108.778C88.9963 112.633 99.2293 101.864 99.2293 101.864C92.9858 108.503 84.2154 112.694 74.4999 112.938C67.4651 112.877 61.6177 110.552 57.2013 106.881C48.7957 99.8448 47.0295 87.5153 54.2164 78.9799C57.3841 75.2173 62.9571 70.6281 59.9118 65.0904C58.602 62.7349 55.374 60.0122 55.9223 56.2802ZM37.5885 78.3071C37.5885 58.3302 53.6989 42.1458 73.6161 42.1458H74.2859C74.2859 42.1458 61.1289 43.9199 54.7342 50.4368C48.3078 56.953 48.1863 61.9093 48.3078 64.1427C48.3996 65.8255 49.4348 67.9975 51.688 68.6703C52.084 68.4254 52.51 68.2119 52.9366 67.9975C55.1294 66.9269 56.8045 65.6419 56.6524 63.5614C56.6524 63.2864 56.5607 63.0107 56.439 62.7963C62.6521 69.3739 55.3734 73.7795 51.6574 78.0014C43.465 87.2711 43.952 98.8963 54.8251 108.013C47.5157 104.128 42.5819 98.5906 40.542 92.6858C38.6237 88.2802 37.5885 83.4163 37.5885 78.3071Z" fill="white"/>
<path d="M61.2539 23.089C61.315 21.7426 62.0462 20.4576 63.3252 19.7541L66.1572 18.1635C68.106 17.0928 70.5734 17.7963 71.6698 19.7541L74.3801 24.7411L97.1905 69.2542C98.1951 71.2121 97.3122 73.7819 95.3937 74.8218C95.1499 74.9746 94.9067 75.0667 94.6628 75.1583C94.4496 75.4032 94.2064 75.6474 93.932 75.831C92.2262 77.1466 89.4859 76.9632 88.115 75.2188L54.3406 32.7864L49.712 26.6374C48.3418 24.8632 48.7073 22.2933 50.4735 20.9469L53.0624 18.9891C54.8591 17.6128 57.3868 17.9799 58.727 19.7541L61.2539 23.089Z" fill="white"/>
<path d="M72.9436 114.867C52.417 114.867 35.7891 98.1635 35.7891 77.5437C35.7891 56.9238 52.417 40.1895 72.9436 40.1895C93.4702 40.1895 110.129 56.9238 110.129 77.5437C110.129 98.1635 93.4702 114.867 72.9436 114.867Z" fill="url(#paint0_linear_1893_289)"/>
<path d="M70.5108 56.3443C71.4693 56.3443 72.2464 55.0017 72.2464 53.3458C72.2464 51.6897 71.4693 50.3472 70.5108 50.3472C69.5523 50.3472 68.7754 51.6897 68.7754 53.3458C68.7754 55.0017 69.5523 56.3443 70.5108 56.3443Z" fill="#1F2123"/>
<path d="M86.1967 89.475C85.8618 87.2414 82.2683 84.5801 78.187 83.5094C74.1057 82.4388 71.0909 83.3566 71.4258 85.5901C71.7607 87.7929 75.3542 90.4543 79.4357 91.5249C83.4864 92.5956 86.5324 91.6778 86.1967 89.475Z" fill="#1F2123"/>
<path d="M61.2803 48.6641C60.3054 48.6641 59.209 49.9797 59.209 51.0195C59.209 52.0596 60.6403 52.9466 61.6152 52.9466C62.5593 52.9466 62.681 52.1209 62.681 51.0803C62.681 50.0396 62.2236 48.6641 61.2803 48.6641Z" fill="#1F2123"/>
<path d="M89.2093 84.6112C90.1842 84.3055 91.2498 82.1633 91.1887 80.8177C91.097 79.4413 89.5748 78.737 88.5693 79.0743C87.5946 79.38 87.5342 80.512 87.5946 81.8891C87.6557 83.2349 88.2344 84.9175 89.2093 84.6112Z" fill="#1F2123"/>
<path d="M99.5618 57.4743C99.3791 56.5257 97.1558 55.853 95.6334 56.1895C91.7961 56.9544 93.0751 61.6656 96.9126 60.87C98.4654 60.5643 99.7752 58.423 99.5618 57.4743Z" fill="#1F2123"/>
<path d="M77.7576 45.3003C77.2095 45.3003 76.5703 46.0344 76.5703 46.6159C76.5703 47.1974 77.3924 47.7173 77.9405 47.7173C78.458 47.7173 78.5193 47.2281 78.5193 46.6467C78.5193 46.0652 78.2754 45.3003 77.7576 45.3003Z" fill="#1F2123"/>
<path d="M73.6214 42.147C53.7042 42.147 37.5938 58.3306 37.5938 78.3083C37.5938 83.4175 38.629 88.2816 40.5481 92.687C42.5887 98.5918 47.5225 104.129 54.8312 108.014C43.9588 98.8975 43.4718 87.2724 51.6635 78.0028C55.3793 73.7807 62.6572 69.3753 56.4451 62.7977C56.5668 63.0119 56.6585 63.2869 56.6585 63.5626C56.9321 67.3867 48.7405 71.5779 48.3139 64.1441C48.1923 61.9105 48.3139 56.9542 54.7401 50.4382C61.1358 43.922 74.2918 42.147 74.2918 42.147H73.6214Z" fill="#1F2123"/>
<path d="M59.9153 65.0936C62.9605 70.6313 57.3876 75.2195 54.2199 78.9831C47.033 87.5185 48.7992 99.848 57.205 106.884C61.6212 110.555 67.4678 112.88 74.5034 112.942C84.2189 112.697 92.9893 108.505 99.2328 101.867C99.2328 101.867 88.9998 112.636 73.4376 108.781C52.2108 103.55 56.292 78.0046 75.2649 78.9223C81.7821 79.228 86.1066 83.8478 86.1066 83.8478C86.1066 83.8478 86.4721 79.4422 84.9796 76.2304C83.4566 73.0183 80.594 70.9378 80.594 70.9378C79.8325 63.4115 74.1677 58.4254 66.7369 58.5475C64.5135 58.5783 56.8999 59.9239 55.9258 56.2832C55.3777 60.0152 58.6055 62.7379 59.9153 65.0936ZM72.524 69.5912C70.9712 69.5912 69.7218 68.3064 69.7218 66.7464C69.7218 65.1865 70.9704 63.9016 72.524 63.9016C74.0768 63.9016 75.356 65.1865 75.356 66.7464C75.356 68.3064 74.0768 69.5912 72.524 69.5912Z" fill="#1F2123"/>
<path d="M86.7467 94.7985C80.0466 98.2555 74.1992 96.0833 71.2449 92.5957C68.1691 88.9858 68.1385 83.9374 71.9758 80.8176C71.702 80.879 71.4277 80.9705 71.1837 81.0626C66.1283 82.7147 62.8391 87.1203 62.5952 92.4436C62.0471 105.752 78.7668 109.117 90.4915 104.742C105.14 99.2662 111.566 79.35 106.754 65.0634C103.008 53.8966 93.202 44.7192 78.9794 42.5464C81.3854 42.9442 87.7506 44.6876 94.2678 52.336C101.82 61.147 100.298 72.2522 99.6887 76.5349C99.0511 80.8168 96.2794 89.873 86.7467 94.7985Z" fill="#1F2123"/>
<path d="M90.7001 73.1368L56.9564 30.7043L52.3576 24.616C52.1136 24.3103 52.1747 23.851 52.4791 23.6068L55.0679 21.649C55.4028 21.404 55.8294 21.4655 56.0726 21.7711L60.6716 27.8894L92.1918 71.9739C92.4052 72.2489 92.3135 72.8919 91.9182 73.1668C91.5528 73.4434 90.9127 73.3818 90.7001 73.1368ZM92.5878 71.6684L67.3715 28.5622L64.6609 23.6674C64.4783 23.3003 64.5998 22.8717 64.9347 22.6882L67.7667 21.0975C68.1322 20.914 68.5588 21.0361 68.7416 21.3725L71.4519 26.298L94.2317 70.7804C94.384 71.0553 94.2011 71.6676 93.7753 71.9126C93.3801 72.1276 92.7401 71.9747 92.5878 71.6684Z" fill="#1F2123"/>
<path d="M51.7491 65.6138C52.6935 65.6446 53.8808 63.656 53.9419 62.0646C54.0031 60.4739 52.6323 59.0662 51.688 59.0054C50.7133 58.9747 50.561 60.2597 50.5007 61.8502C50.4395 63.411 50.805 65.583 51.7491 65.6138Z" fill="#1F2123"/>
<path d="M99.0484 69.8037C98.5306 69.8037 97.8906 70.538 97.8906 71.1195C97.8906 71.7316 98.7127 72.2209 99.2608 72.2209C99.7785 72.2209 99.8397 71.7623 99.8397 71.1503C99.8397 70.568 99.5965 69.8037 99.0484 69.8037Z" fill="#1F2123"/>
<path d="M93.2572 84.4561C92.7396 84.4561 92.0996 85.2212 92.0996 85.8026C92.0996 86.3839 92.9223 86.904 93.4698 86.904C93.9873 86.904 94.0486 86.4147 94.0486 85.8332C94.0494 85.2519 93.8055 84.4561 93.2572 84.4561Z" fill="#1F2123"/>
<path d="M96.2749 71.3348C95.7878 70.4786 93.3818 70.5392 91.9811 71.3656C88.509 73.4155 91.3113 77.5761 94.8131 75.5262C96.2138 74.7006 96.7925 72.192 96.2749 71.3348Z" fill="#1F2123"/>
<defs>
<linearGradient id="paint0_linear_1893_289" x1="67.0312" y1="47.014" x2="79.4423" y2="114.419" gradientUnits="userSpaceOnUse">
<stop stop-color="#FCCD15"/>
<stop offset="0.2706" stop-color="#FC941A"/>
<stop offset="0.6118" stop-color="#FC3E28"/>
<stop offset="1" stop-color="#9D1432"/>
</linearGradient>
</defs>
</svg>
