<svg width="500" height="500" viewBox="0 0 500 500" fill="none" xmlns="http://www.w3.org/2000/svg">
<path fill-rule="evenodd" clip-rule="evenodd" d="M326.682 212.754C330.331 220.14 343.864 246.66 337.7 282.573C335.328 296.391 324.974 316.777 322.374 320.547C319.902 324.128 320.008 325.142 312.627 335.24C309.481 339.542 309.313 339.368 306.14 343.631C303.678 346.938 302.909 347.97 270.941 381.27C260.569 392.076 250.658 408.306 249.313 411.178C243.828 422.88 239.553 432.93 241.328 452.148C242.18 461.38 247.174 464.064 239.291 467.632C237.075 469.451 237.116 469.467 234.682 471.009C226.416 476.245 226.806 476.8 219.123 480.964C218.561 480.435 218.14 479.77 217.578 479.243C216.939 478.642 216.413 479.069 215.473 476.759C214.501 474.373 209.918 468.268 208.984 461.133C206.906 445.271 211.888 431.706 212.773 429.298C222.33 403.286 241.485 387.325 269.419 363.172C292.363 343.335 309.256 325.414 303.897 325.023C301.98 324.883 302.656 327.168 285.227 343.895C281.117 347.837 257.295 367.069 241.405 377.342C238.885 378.853 238.977 378.968 238.64 379.244C236.223 381.217 234.702 381.95 232.491 383.646C223.706 390.39 208.108 402.05 199.259 418.697C181.369 452.348 198.036 469.354 197.824 470.266C197.618 471.145 196.338 471.506 196.132 472.386C190.074 467.839 184.496 463.628 180.916 450.682C177.086 436.828 181.889 420.806 186.962 412.56C189.085 409.11 188.852 409.009 190.928 405.539C191.237 405.023 191.305 405.079 195.181 399.335C197.272 396.233 197.875 396.716 197.89 396.397C197.937 395.421 195.941 395.144 195.988 394.169C214.136 376.659 232.709 367.905 258.742 351.089C283.601 335.029 295.983 323.103 308.242 306.573C313.802 299.078 313.944 297.174 316.428 293.33C318.898 289.508 323.673 276.359 324.071 275.049C329.996 255.589 329.666 240.131 329.599 237.059C329.536 234.085 329.319 232.777 328.139 232.692C326.077 232.545 327.023 234.167 325.497 247.712C323.806 262.707 317.064 278.799 316.599 279.74C316.117 280.715 311.315 290.436 310.446 291.851C308.164 295.566 297.241 316.011 266.381 337.527C255.91 344.828 254.944 345.178 252.073 347.1C251.081 347.763 225.791 363.063 225.446 363.263C221.128 365.762 219.863 366.859 219.106 367.314C196.501 380.898 173.2 399.69 166.947 426.21C163.698 439.984 165.419 444.568 165.94 450.594C166.244 454.112 161.981 451.997 161.661 451.838C160.459 451.241 134.89 440.399 131.415 411.196C128.955 390.527 138.166 375.715 139.816 373.062C140.42 372.091 148.328 357.012 167.775 344.861C171.825 342.332 184.977 335.296 199.243 330.516C216.009 324.898 215.986 324.895 217.458 324.457C228.219 321.255 227.946 320.545 234.128 318.522C241.805 316.009 242.721 314.718 249.186 312.24C253.396 310.627 266.075 303.76 267.826 302.623C269.878 301.29 276.091 297.727 279.84 294.827C289.147 287.627 290.79 287.345 302.218 274.769C308.006 268.398 313.478 258.168 314.299 256.631C314.797 255.724 317.632 250.547 319.349 244.723C327.497 217.075 323.351 216.127 324.788 214.096C325.235 213.463 326.236 213.387 326.682 212.754Z" fill="#DFCFA8"/>
<path fill-rule="evenodd" clip-rule="evenodd" d="M152.464 82.5823C145.887 88.8885 145.084 97.4028 144.541 100.563C144.171 100.741 143.692 100.235 143.323 100.41C142.909 100.607 142.978 101.464 142.525 101.527C142.113 101.584 138.992 83.2532 153.671 70.1244C179.12 47.3606 206.723 67.8346 229.769 61.6208C235.792 59.9988 244.337 58.3359 254.266 43.417C261.376 32.731 265.933 21.6967 284.303 17.8243C289.689 16.6884 290.89 16.5612 299.483 18.5012C322.899 23.7897 316.917 43.6881 308.215 53.5987C305.369 56.8396 305.665 57.091 302.297 59.7428C296.958 63.9439 291.58 68.8432 281.013 73.0291C268.652 77.9254 260.033 82.705 231.281 80.4424C214.993 79.1611 192.538 67.3257 172.084 71.6585C163.932 73.385 158.758 77.5725 155.025 80.5196C154.819 80.6817 152.875 82.2158 152.464 82.5823Z" fill="#E4CD81"/>
<path fill-rule="evenodd" clip-rule="evenodd" d="M149.577 140.113C152.004 148.849 150.803 151.285 153.814 155.515C154.006 155.785 153.935 156.442 154.264 156.403C154.82 156.338 155.047 155.579 155.537 155.309C155.778 155.176 156.328 155.52 156.36 155.247C156.366 155.197 149.923 140.013 163.284 122.114C171.329 111.336 185.766 105.805 196.3 104.707C219.852 102.252 241.832 110.392 270.213 94.0391C270.263 94.8524 271.782 95.0583 271.832 95.8716C271.875 96.5804 271.011 97.0726 270.422 97.4678C270.044 97.7223 269.45 97.4618 269.077 97.7238C268.697 97.9919 269.247 98.5885 267.563 99.2398C267.163 99.3942 266.692 99.3745 266.33 99.6063C265.829 99.9273 266.144 100.312 264.652 100.925C261.626 102.17 261.613 102.952 256.767 104.892C245.831 109.27 241.307 110.943 217.586 111.583C215.352 111.642 215.393 111.679 213.052 111.831C212.488 111.557 212.749 110.475 210.012 110.353C197.638 109.802 187.359 110.913 174.126 119.605C171.109 121.586 160.179 131.128 160.181 147.708C160.182 161.599 169.396 168.833 170.958 170.06C174.498 172.841 179.417 176.263 193.312 176.227C196.247 176.218 196.154 175.82 196.896 175.705C197.141 175.667 197.38 175.9 197.626 175.856C197.786 175.827 197.648 175.526 199.526 175.082C204.386 173.934 201.094 172.253 200.859 172.147C199.9 171.715 185.678 176.769 176.384 163.025C170.568 154.428 171.847 147.171 172.693 144.86C173.193 143.497 173.546 143.68 174.082 141.781C174.785 139.294 175.197 139 175.318 138.613C175.469 138.126 175.409 137.592 175.533 137.098C175.665 136.577 175.577 135.765 176.081 135.584C176.295 135.506 176.258 136.073 178.902 135.882C179.102 135.868 179.001 135.373 179.202 135.359C178.453 137.401 173.185 151.772 183.42 162.214C192.955 171.94 210.383 167.596 208.513 153.759C208.442 153.232 208.318 152.714 208.247 152.187L208.772 150.986C209.243 150.808 209.27 150.006 209.74 149.83C209.974 149.742 209.918 150.309 210.087 150.493C210.291 150.718 210.853 150.792 211.587 152.18C212.031 153.018 215.567 158.137 212.875 165.808C205.548 186.68 173.384 189.091 153.145 165.291C152.389 164.402 146.561 155.697 145.609 153.419C142.168 145.199 140.142 132.867 141.659 124.949C142.409 121.039 143.784 116.115 144.38 114.228C145.197 111.648 145.524 111.416 146.891 108.601C154.19 96.2699 158.291 93.5878 165.884 88.3206C166.835 87.6603 179.999 79.9911 194.868 80.144C212.953 80.3318 218.278 86.0701 238.74 86.2397C244.605 86.2881 260.898 87.1544 273.704 81.2829C277.733 79.4353 277.704 79.352 278.161 79.3429C278.717 79.3307 281.411 80.5362 278.208 82.6186C274.489 85.0372 274.64 85.2144 270.834 87.5058C248.523 100.933 229.334 98.8384 214.522 98.2826C201.771 97.804 182.807 96.388 165.024 111.908C155.856 119.912 152.696 132.044 152.18 134.025C151.223 137.701 150.955 138.257 150.788 138.6C150.508 139.182 149.858 139.532 149.577 140.113Z" fill="#C79C4F"/>
<path fill-rule="evenodd" clip-rule="evenodd" d="M296.647 96.3633C296.995 96.9342 297.774 97.1508 298.122 97.7218C298.975 99.1181 297.577 103.84 313.089 109.519C318.242 111.406 332.377 111.562 334.542 124.92C336.984 139.995 335.505 140.084 336.515 155.324C337.805 174.762 337.286 176.098 343.069 190.191C350.618 208.586 349.577 208.914 357.166 233.956C358.609 238.72 360.44 242.755 360.601 244.459C360.654 245.016 360.455 245.593 360.581 246.138C360.639 246.393 360.916 246.265 361.993 249.084C362.473 250.339 365.221 261.69 361.435 259.788C361.045 259.591 359.41 254.265 359.373 253.975C359.254 253.056 359.657 253.029 358.959 250.682C358.034 247.568 357.28 247.862 356.647 244.707C353.981 231.43 335.874 204.448 331.655 183.929C330.475 178.191 330.772 178.153 328.667 168.791C327.996 165.81 327.826 165.883 327.465 162.843C327.392 162.231 327.05 162.328 326.026 155.271C325.287 150.181 322.373 149.846 321.857 149.262C320.495 132.527 318.903 132.448 317.525 132.542C315.482 132.68 316.989 133.896 317.928 150.732C317.957 151.244 317.895 151.226 318.211 157.134C318.223 157.375 318.734 158.098 317.51 158.265C315.373 158.556 315.517 157.891 312.806 155.516C299.902 144.212 296.774 139.316 292.88 132.778C284.849 119.291 286.315 115.673 286.901 114.228C287.871 111.839 291.084 109.986 296.647 96.3633Z" fill="#FCFCF7"/>
<path fill-rule="evenodd" clip-rule="evenodd" d="M307.126 281.108C304.347 285.123 304.492 285.199 301.4 288.99C295.58 296.121 295.859 296.357 289.218 302.706C280.979 310.58 272.325 316.271 260.246 323.817C241.838 335.315 206.162 347.316 194.628 353.205C187.722 356.733 162.97 367.674 150.474 392.78C149.776 394.312 144.08 405.269 144.369 418.778C144.522 425.958 147.403 430.648 146.075 431.927C145.782 432.207 145.278 432.569 144.936 432.354C144.584 432.133 144.961 431.494 144.786 431.116C144.497 430.5 143.137 429.332 141.677 424.966C138.41 415.201 131.057 395.387 151.642 367.899C153.009 366.071 160.257 358.892 162.199 357.428C187.254 338.53 213.665 335.02 243.51 322.254C244.44 321.856 260.741 314.258 268.697 309.13C278.532 302.792 280.228 301.399 281.161 300.633C284.284 298.067 285.607 297.952 292.132 292.012C292.702 291.493 296.016 288.476 298.762 285.002C299.999 283.438 300.063 283.521 300.135 283.366C300.329 282.953 299.992 282.353 300.288 282.008C300.758 281.46 301.63 281.426 302.189 280.97C302.692 280.56 302.914 279.873 303.411 279.456C304.376 278.649 304.648 278.77 304.757 278.818C306.301 279.505 305.562 280.412 307.126 281.108Z" fill="#F8F3E5"/>
<path fill-rule="evenodd" clip-rule="evenodd" d="M296.648 96.3633C297.58 93.3753 297.613 93.4177 298.121 90.2904C299.52 81.6565 301.021 91.3096 301.06 91.5625C301.074 91.6503 300.968 97.169 310.071 102.052C318.043 106.327 333.215 103.477 339.049 117.278C345.462 132.451 340.905 147.028 344.34 173.508C345.844 185.094 351.758 188.363 359.188 223.559C359.6 225.517 359.691 225.481 365.353 247.8C368.126 258.728 371.028 264.975 369.638 276.541C369.192 280.248 367.111 284.331 364.788 288.713C363.548 291.051 359.307 295.923 358.799 296.56C358.65 296.747 357.055 298.74 355.901 297.263C354.199 295.084 361.195 286.023 361.049 276.479C361.032 275.417 360.879 275.463 360.681 274.41C360.543 273.683 360.658 273.672 360.287 273.027C360.11 272.721 360.116 272.203 359.778 272.096C358.125 271.573 357.823 274.357 357.796 274.611C357.731 275.214 357.086 281.193 356.435 282.056C356.248 282.303 353.79 284.994 353.515 279.526C352.704 263.409 352.555 263.286 353.974 259.808C356.998 252.393 355.559 251.984 349.842 239.858C342.954 225.248 332.945 211.615 328.469 194.55C325.553 183.438 324.281 164.689 321.858 149.262C322.374 149.846 325.288 150.181 326.027 155.271C327.051 162.328 327.393 162.231 327.466 162.843C327.828 165.883 327.998 165.81 328.669 168.791C330.774 178.153 330.477 178.191 331.657 183.929C335.876 204.448 353.983 231.43 356.648 244.707C357.281 247.862 358.035 247.568 358.961 250.682C359.659 253.029 359.256 253.056 359.374 253.975C359.412 254.265 361.046 259.591 361.437 259.788C365.223 261.69 362.474 250.339 361.994 249.084C360.917 246.265 360.64 246.393 360.583 246.138C360.457 245.593 360.655 245.016 360.602 244.459C360.442 242.755 358.611 238.72 357.167 233.956C349.579 208.914 350.619 208.586 343.071 190.191C337.287 176.098 337.807 174.762 336.516 155.324C335.506 140.084 336.986 139.995 334.543 124.92C332.379 111.562 318.243 111.406 313.091 109.519C297.578 103.84 298.976 99.1181 298.124 97.7218C297.775 97.1508 296.997 96.9343 296.648 96.3633Z" fill="#DCCA92"/>
<path fill-rule="evenodd" clip-rule="evenodd" d="M226.914 67.8431C236.017 66.8087 248.11 66.8057 261.103 44.5053C269.296 30.4421 277.409 24.9553 288.739 23.3727C295.682 22.4034 311.502 25.5308 309.6 35.5701C309.032 38.5732 306.479 52.0549 283.989 63.9313C281.957 65.0035 270.429 69.7589 261.379 71.2233C258.987 71.6095 248.851 73.2497 231.105 70.8129C230.773 70.7675 227.315 70.292 227.003 69.983C226.881 69.8619 226.997 69.8361 226.914 67.8431Z" fill="#C98E28"/>
<path fill-rule="evenodd" clip-rule="evenodd" d="M241.404 377.342C257.293 367.069 281.116 347.837 285.226 343.895C302.654 327.168 301.979 324.883 303.896 325.023C309.254 325.414 292.362 343.335 269.418 363.173C241.484 387.325 222.329 403.286 212.771 429.298C211.887 431.706 206.904 445.271 208.982 461.133C209.917 468.268 214.499 474.373 215.472 476.76C216.412 479.069 216.938 478.642 217.577 479.243C218.139 479.77 218.56 480.435 219.121 480.964C214.639 482.416 214.673 482.796 209.995 482.566C207.025 482.419 201.901 481.127 200.945 480.799C176.05 472.239 174.285 449.887 173.476 444.558C173.184 442.631 171.961 434.585 177.141 420.482C178.08 417.928 182.587 409.66 183.851 407.928C191.675 397.21 194.957 395.109 195.987 394.169C195.94 395.144 197.936 395.421 197.889 396.397C197.874 396.716 197.271 396.233 195.179 399.335C191.304 405.079 191.236 405.023 190.927 405.539C188.851 409.009 189.084 409.11 186.961 412.56C181.887 420.807 177.085 436.828 180.915 450.682C184.495 463.628 190.073 467.839 196.131 472.386C201.184 475.804 201.39 475.383 207.003 477.764C207.466 477.96 207.942 478.628 208.381 478.383C208.92 478.082 209.908 475.56 209.723 475.035C209.576 474.62 208.896 475.074 206.741 470.428C206.605 470.134 201.904 463.694 202.871 446.042C202.967 444.296 203.15 429.168 216.615 408.521C221.455 401.1 233.286 389.218 234.851 387.646C239.312 383.165 239.95 382.662 242.277 380.925C243.3 380.162 243.348 380.168 243.322 380.062C242.917 378.399 241.816 379.033 241.404 377.342Z" fill="#B0905C"/>
<path fill-rule="evenodd" clip-rule="evenodd" d="M253.409 136.386C253.668 137.105 253.683 137.897 253.942 138.617C254.515 140.207 254.718 140.098 255.207 141.706C256.68 146.548 260.406 154.353 260.918 155.427C269.525 173.048 279.764 187.711 279.022 200.699C278.826 204.144 279.069 206.358 278.723 206.762C278.101 207.491 276.967 207.65 276.343 208.378C275.127 204.482 275.001 204.553 274.197 200.53C273.374 196.414 273.701 196.338 272.325 192.928C271.713 191.406 270.986 191.124 270.177 192.57C269.532 193.721 270.015 194.108 270.042 194.409C270.676 201.366 269.67 201.369 270.239 208.343C269.241 209.673 268.443 209.235 267.588 212.844C267.006 215.292 266.429 216.055 265.891 217.289C264.545 220.382 264.469 220.312 263.317 223.521C263.273 223.556 261.156 224.216 259.673 226.45C259.44 226.802 257.948 229.049 256.677 230.791C255.204 233.359 250.418 244.292 248.43 255.343C248.171 256.776 248.351 256.782 246.243 273.42C246.213 273.659 245.926 275.908 246.328 276.429C246.912 277.191 247.98 277.48 248.565 278.24C245.218 293.086 245.658 300.662 245.342 303.759C244.921 307.885 241.59 307.422 241.007 306.318C240.65 305.643 240.795 305.603 240.391 302.159C237.115 274.349 239.167 264.466 239.838 258.195C243.106 227.588 266.334 212.393 266.046 193.132C265.834 178.901 247.821 155.123 246.594 140.126C246.313 136.692 251.198 136.755 252.127 136.543C252.758 136.399 252.744 136.468 253.409 136.386Z" fill="#DAC288"/>
<path fill-rule="evenodd" clip-rule="evenodd" d="M261.125 133.37C265.288 131.499 265.253 131.328 266.057 131.34C268.955 131.389 266.698 133.453 271.986 152.275C274.317 160.563 281.843 175.32 284.275 182.508C291.194 202.951 285.52 210.106 285.697 214.342C285.703 214.511 286.275 216.899 286.307 216.913C287.237 217.336 288.435 214.443 288.542 214.182C295.582 197.183 288.268 181.125 285.355 173.583C286.303 173.545 286.721 171.967 287.669 171.929C287.937 171.919 289.74 175.105 291.017 176.473C294.27 179.959 293.521 180.454 296.666 185.37C298.188 187.748 299.877 193.583 300.293 196.247C300.369 196.741 300.401 197.239 300.464 197.734C300.751 199.933 301.025 199.838 301.234 200.651C301.365 201.161 301.223 201.743 301.453 202.218C301.497 202.308 301.705 202.084 302.389 203.042C303.012 203.913 302.745 204.027 303.381 204.916C295.046 215.082 291.573 216.998 286.001 222.259C282.963 225.127 281.918 222.576 276.347 208.378C276.971 207.649 278.105 207.49 278.727 206.762C279.073 206.357 278.83 204.143 279.026 200.698C279.768 187.71 269.529 173.047 260.922 155.426C261.605 154.642 262.871 154.539 263.552 153.756C264.243 152.962 263.1 136.365 262.707 135.582C262.302 134.771 261.531 134.18 261.125 133.37Z" fill="#FAFBF7"/>
<path fill-rule="evenodd" clip-rule="evenodd" d="M329.402 318.263C329.782 318.747 330.779 318.351 331.16 318.835C332.042 319.959 329.036 323.981 325.31 340.083C324.515 343.519 314.665 376.784 316.035 405.156C316.687 418.624 319.063 427.573 318.553 429.193C318.51 429.328 317.594 430.478 317.359 430.658C316.949 430.971 313.435 432.412 313.09 432.554C312.755 431.766 313.276 431.688 312.945 430.902C312.552 429.976 312.19 430.243 311.73 429.343C311.647 429.181 306.192 406.119 310.947 388.573C311.083 388.073 311.173 387.56 311.236 387.045C311.636 383.808 310.187 384.203 309.837 383.781C306.941 389.159 307.2 393.673 302.378 406.666C297.901 418.729 298.145 431.703 298.186 433.908C298.235 436.454 298.176 436.42 297.933 438.928L296.232 439.699C295.419 438.874 295.621 438.75 294.82 437.936C293.862 436.964 293.709 437.167 293.643 437.07C293.058 436.207 292.528 429.673 294.359 418.733C295.337 412.889 301.803 393.972 302.872 391.83C302.872 391.83 307.114 380.879 306.605 379.556C306.17 378.424 305.16 377.547 304.833 376.381C304.691 375.874 305.505 375.349 305.292 374.867C304.925 374.046 303.699 373.836 303.332 373.015C305.413 369.074 322.623 333.946 324.551 329.161C324.733 328.706 324.666 328.684 326.723 323.433C327.241 322.112 327.38 322.218 327.723 321.437C328.054 320.681 328.195 319.845 328.58 319.117C328.764 318.767 329.217 318.611 329.402 318.263Z" fill="#D4B97F"/>
<path fill-rule="evenodd" clip-rule="evenodd" d="M241.413 377.341C241.825 379.032 242.926 378.398 243.332 380.061C243.357 380.167 243.309 380.161 242.287 380.924C239.959 382.661 239.321 383.164 234.86 387.645C233.295 389.217 221.464 401.1 216.624 408.52C203.159 429.167 202.976 444.295 202.88 446.041C201.913 463.693 206.614 470.133 206.75 470.427C208.905 475.073 209.585 474.619 209.732 475.034C209.917 475.559 208.929 478.081 208.39 478.382C207.951 478.627 207.475 477.96 207.012 477.763C201.399 475.382 201.193 475.803 196.14 472.385C196.346 471.505 197.625 471.145 197.831 470.265C198.043 469.353 181.377 452.347 199.267 418.696C208.116 402.049 223.713 390.389 232.499 383.645C234.71 381.949 236.23 381.216 238.647 379.243C238.985 378.967 238.893 378.852 241.413 377.341Z" fill="#CEBC99"/>
<path fill-rule="evenodd" clip-rule="evenodd" d="M295.269 375.139C294.299 375.112 293.941 373.381 292.972 373.352C292.878 373.349 290.438 377.22 290.27 377.329C289.786 377.643 289.084 377.535 288.633 377.896C288.362 378.112 288.503 378.594 288.317 378.888C288.121 379.195 287.711 379.327 287.528 379.64C286.676 381.108 286.907 381.223 285.893 382.563C281.373 388.542 282.26 389.16 273.663 400.663C269.022 407.737 263.825 420.279 262.591 427.788C260.375 441.251 262.45 445.421 262.698 447.854C262.763 448.478 262.453 448.436 262.539 449.075C262.669 450.034 262.977 449.919 263.108 450.886C258.844 453.437 258.839 453.382 257.476 454.329C255.395 455.77 252.027 460.464 250.486 455.293C243.736 432.658 258.703 409.44 259.571 407.962C265.127 398.494 265.474 398.747 272.174 390.072C281.417 378.103 300.791 359.977 303.775 355.064C304.863 353.271 313.829 340.936 311.2 349.073C311.094 349.4 304.929 359.781 303.199 362.282C298.887 368.508 299.48 368.847 295.269 375.139Z" fill="#CABE9D"/>
<path fill-rule="evenodd" clip-rule="evenodd" d="M213.043 111.83C190.258 118.729 186.068 121.329 179.193 135.359C178.992 135.372 179.093 135.868 178.894 135.881C176.249 136.072 176.286 135.506 176.072 135.583C175.568 135.765 175.656 136.576 175.524 137.097C175.4 137.591 175.46 138.126 175.309 138.612C175.188 139 174.776 139.293 174.073 141.78C173.537 143.679 173.184 143.496 172.684 144.859C171.838 147.17 170.56 154.427 176.375 163.025C185.669 176.769 199.891 171.715 200.85 172.146C201.085 172.252 204.377 173.933 199.517 175.081C197.639 175.525 197.777 175.827 197.617 175.855C197.371 175.899 197.132 175.666 196.887 175.704C196.145 175.819 196.239 176.217 193.304 176.226C179.408 176.263 174.49 172.84 170.949 170.06C169.387 168.833 160.173 161.598 160.172 147.708C160.17 131.127 171.1 121.585 174.117 119.604C187.35 110.913 197.629 109.801 210.003 110.352C212.74 110.475 212.48 111.556 213.043 111.83Z" fill="#965B19"/>
<path fill-rule="evenodd" clip-rule="evenodd" d="M241.644 143.208C241.187 143.832 238.779 144.5 239.468 149.278C240.566 156.887 239.49 180.253 232.086 195.874C226.549 207.555 226.078 219.152 220.37 235.486C220.289 235.72 219.518 237.928 220.042 238.566C221.096 239.847 221.747 239.005 222.751 240.347C223.251 241.016 221.897 241.048 222.388 241.704C220.278 248.573 220.328 248.56 217.557 255.213C217.452 255.464 216.393 258.006 216.113 258.298C215.868 258.555 215.273 258.349 215.112 258.667C214.965 258.958 215.891 259.175 214.17 262.626C213.928 263.112 213.848 263.061 210.958 268.595C207.339 275.529 211.735 276.091 212.032 276.609C212.268 277.021 211.347 277.55 211.584 277.961C210.066 286.982 213.136 287.413 213.988 294.619C214.549 299.353 211.256 298.151 210.598 297.144C209.053 294.786 206.153 289.084 205.791 288.37C204.036 284.917 202.365 275.467 204.334 270.525C206.918 264.044 212.274 259.947 214.976 243.187C216.821 231.739 216.852 231.772 219.362 220.455C222.548 206.082 221.983 205.925 227.219 191.824C231.898 179.222 232.6 178.812 233.334 158.321C233.976 140.454 233.546 140.198 234.626 139.098C235.571 138.135 239.722 137.45 240.735 139.874C240.843 140.128 240.803 140.12 241.644 143.208Z" fill="#D8C48E"/>
<path fill-rule="evenodd" clip-rule="evenodd" d="M286.621 82.0595C293.6 77.5328 294.41 70.009 296.937 72.835C298.155 74.198 297.004 74.4024 294.137 83.8814C293.132 87.2101 289.455 100.734 278.222 112.923C276.67 114.607 269.159 122.753 253.962 128.116C231.671 135.98 204.862 122.226 190.087 138.411C186.664 142.161 185.11 150.233 183.42 147.342C182.883 146.421 184.052 135.92 190.59 129.809C194.152 126.481 195.949 125.421 196.469 125.115C196.702 124.978 197.315 124.616 199.27 123.2C200.526 123.668 199.651 124.643 200.92 125.117C201.045 125.164 200.917 124.803 202.434 124.381C202.896 124.252 203.393 124.343 203.87 124.296C223.249 122.414 248.62 129.16 268.863 112.598C282.921 101.096 288.991 84.4084 288.844 84.1343C288.367 83.2393 287.1 82.953 286.621 82.0595Z" fill="#D1AE68"/>
<path fill-rule="evenodd" clip-rule="evenodd" d="M234.195 344.434C233.833 347.347 233.905 347.346 233.803 347.579C233.641 347.956 233.294 348.763 229.697 350.647C224.994 353.113 224.772 352.542 224.37 352.76C224.036 352.939 223.882 353.351 223.571 353.57C222.911 354.035 222.854 353.928 214.774 358.541C185.192 375.434 168.706 394.52 163.278 405.275C157.619 416.493 157.487 419.784 156.77 423.288C154.188 435.908 157.104 439.138 153.917 438.763C152.998 438.654 151.823 438.516 150.157 427.813C148.536 417.397 152.286 402.274 161.109 391.209C165.613 385.563 165.651 385.613 170.75 381.065C176.99 375.498 180.732 373.314 181.032 373.09C183.6 371.174 191.557 365.235 216.004 353.555C224.845 349.331 228.477 346.937 234.195 344.434Z" fill="#E8DABE"/>
<path fill-rule="evenodd" clip-rule="evenodd" d="M248.582 162.57C252.383 169.759 252.751 170.071 250.788 177.962C249.63 182.622 248.284 197.868 243.786 206.982C242.898 208.779 243.501 209.037 233.35 229.768C229.762 237.097 229.462 236.925 226.307 244.472C223.61 250.927 221.887 251.463 223.241 259.839C224.549 267.94 222.524 268.332 221.723 277.902C221.52 280.319 221.805 280.386 221.195 281.363C218.953 284.956 216.506 279.993 217.331 274.894C217.413 274.391 217.572 273.904 217.673 273.403C218.546 269.088 215.591 270.107 214.502 271.834C212.676 274.728 212.898 274.811 211.594 277.961C211.358 277.549 212.279 277.021 212.043 276.609C211.746 276.091 207.349 275.529 210.969 268.594C213.859 263.06 213.939 263.112 214.181 262.626C215.902 259.174 214.976 258.958 215.123 258.667C215.284 258.349 215.879 258.555 216.124 258.297C216.404 258.005 217.463 255.464 217.567 255.212C220.339 248.559 220.289 248.573 222.399 241.704C225.382 231.554 230.327 219.546 231.95 216.273C241.296 197.438 239.957 196.909 244.323 176.349C246.013 168.389 245.406 164.786 245.782 164.357C246.512 163.524 247.852 163.403 248.582 162.57Z" fill="#C9B27E"/>
<path fill-rule="evenodd" clip-rule="evenodd" d="M321.805 205.284C322.017 214.986 317.955 238.754 308.033 254.979C304.925 260.06 305.317 260.283 301.578 264.957C300.665 264.86 300.268 263.429 299.355 263.332C299.276 263.323 286.965 273.389 283.801 275.846C279.008 279.57 277.43 279.803 271.961 285.322C270.536 286.759 270.688 286.863 270.532 286.937C270.086 287.151 269.506 286.931 269.066 287.154C267.977 287.704 267.233 288.971 266.037 289.209C265.273 289.361 264.71 288.017 263.945 288.169C271.68 277.754 272.099 278.134 280.453 268.255C292.918 253.515 300.797 248.861 307.016 238.625C309.573 234.418 315.114 227.538 317.807 214.421C318.298 212.037 318.811 212.204 319.124 209.809C319.232 208.993 319.362 208.462 319.389 208.345C319.976 205.937 321.71 205.407 321.805 205.284Z" fill="#F8F8F0"/>
<path fill-rule="evenodd" clip-rule="evenodd" d="M311.688 217.405C306.503 229.823 302.694 236.236 294.763 246.092C293.653 247.47 278.223 262.993 276.774 264.45C269.721 271.547 266.904 275.236 261.954 281.403C261.616 280.692 260.962 280.165 260.625 279.457C259.896 277.922 260.507 277.901 261.239 276.39C266.131 266.273 266.429 259.991 278.429 246.326C287.61 235.874 288.511 236.829 298.458 227.091C310.077 215.715 308.41 213.711 309.806 213.794C310.837 213.857 311.649 214.935 312.127 215.851C312.376 216.328 311.44 216.928 311.688 217.405Z" fill="#FCFCF4"/>
<path fill-rule="evenodd" clip-rule="evenodd" d="M303.326 373.015C303.693 373.835 304.919 374.046 305.286 374.867C305.499 375.348 304.685 375.874 304.827 376.381C305.154 377.547 306.164 378.424 306.599 379.556C307.108 380.879 302.866 391.83 302.866 391.83C301.797 393.972 295.331 412.889 294.353 418.733C292.522 429.673 293.052 436.207 293.637 437.07C293.703 437.167 293.856 436.964 294.813 437.936C295.614 438.749 295.413 438.874 296.226 439.699C287.574 442.499 285.191 444.232 284.082 441.569C282.867 438.65 282.358 428.17 283.877 420.234C285.487 411.822 287 401.471 303.326 373.015Z" fill="#D2BE94"/>
<path fill-rule="evenodd" clip-rule="evenodd" d="M241.651 143.209C244.67 154.982 248.428 162.238 248.578 162.571C247.848 163.404 246.507 163.525 245.777 164.358C245.402 164.787 246.009 168.39 244.319 176.35C239.953 196.91 241.292 197.439 231.946 216.274C230.322 219.547 225.378 231.555 222.394 241.704C221.904 241.049 223.258 241.017 222.758 240.348C221.754 239.006 221.102 239.848 220.048 238.567C219.524 237.929 220.295 235.721 220.377 235.486C226.085 219.153 226.556 207.555 232.093 195.874C239.497 180.254 240.572 156.888 239.474 149.279C238.785 144.501 241.193 143.833 241.651 143.209Z" fill="#FBF9ED"/>
<path fill-rule="evenodd" clip-rule="evenodd" d="M309.577 206.494C309.822 206.649 312.648 208.414 312.648 208.414C312.694 208.502 312.884 211.104 312.903 211.339C313.027 213.043 311.832 216.933 311.687 217.406C311.438 216.929 312.374 216.329 312.126 215.852C311.647 214.936 310.835 213.857 309.804 213.795C308.408 213.712 310.075 215.716 298.456 227.092C288.509 236.83 287.608 235.875 278.428 246.327C266.427 259.992 266.129 266.274 261.237 276.391C260.506 277.902 259.894 277.923 260.624 279.457C260.96 280.166 261.614 280.693 261.952 281.404C256.214 289.253 254.539 293.59 254.093 294.746C253.998 294.991 252.446 299.014 251.078 296.054C250.863 295.589 255.111 270.219 264.884 255.444C269.963 247.768 269.736 247.61 275.833 240.75C283.071 232.606 298.652 221.663 306.496 210.991C307.884 209.104 309.339 206.861 309.577 206.494Z" fill="#E1D199"/>
<path fill-rule="evenodd" clip-rule="evenodd" d="M295.274 375.14C293.17 378.947 284.006 394.52 280.328 405.374C273.305 426.098 275.889 440.078 276.439 443.058C277.267 447.54 273.514 447.247 270.764 447.894C264.01 425.957 275.948 403.387 275.332 402.141C275.003 401.474 273.996 401.328 273.667 400.663C282.265 389.16 281.377 388.543 285.898 382.563C286.911 381.223 286.681 381.108 287.532 379.641C287.715 379.327 288.126 379.195 288.321 378.888C288.507 378.594 288.367 378.112 288.638 377.896C289.089 377.535 289.79 377.643 290.275 377.33C290.443 377.22 292.883 373.35 292.977 373.353C293.946 373.381 294.303 375.112 295.274 375.14Z" fill="#E7D297"/>
<path fill-rule="evenodd" clip-rule="evenodd" d="M309.825 383.78C310.175 384.203 311.625 383.808 311.225 387.044C311.161 387.559 311.072 388.072 310.936 388.572C306.18 406.118 311.635 429.181 311.719 429.343C312.179 430.242 312.541 429.976 312.933 430.901C313.265 431.687 312.744 431.766 313.079 432.553C310.84 433.591 299.138 438.426 297.922 438.928C298.164 436.42 298.223 436.453 298.175 433.907C298.134 431.702 297.89 418.728 302.367 406.665C307.189 393.673 306.93 389.158 309.825 383.78Z" fill="#FBFAF0"/>
<path fill-rule="evenodd" clip-rule="evenodd" d="M285.35 173.583C284.252 171.234 274.367 150.105 273.928 143.256C273.838 141.868 273.799 141.38 275.173 141.503C276.442 141.616 276.063 142.119 276.413 143.332C277.067 145.596 277.39 145.427 278.229 147.653C283.467 161.537 293.658 172.01 298.223 177.683C308.797 190.824 310.291 193.918 303.376 204.916C302.74 204.027 303.007 203.913 302.384 203.042C301.7 202.084 301.492 202.308 301.448 202.219C301.218 201.743 301.361 201.161 301.229 200.651C301.02 199.838 300.746 199.933 300.46 197.734C300.396 197.239 300.364 196.741 300.288 196.247C299.872 193.583 298.183 187.748 296.661 185.37C293.516 180.454 294.265 179.959 291.012 176.473C289.736 175.105 287.932 171.919 287.664 171.929C286.716 171.967 286.298 173.545 285.35 173.583Z" fill="#FAFBF7"/>
<path fill-rule="evenodd" clip-rule="evenodd" d="M286.042 132.39C289.151 138.098 292.014 146.085 311.985 163.757C319.048 170.009 318.474 170.872 319.419 184.036C318.819 183.38 317.815 183.189 317.214 182.532C317.132 182.441 316.776 179.351 306.684 169.117C302.316 164.688 302.596 164.478 301.686 163.501C297.134 158.611 296.907 158.797 292.905 152.526C290.163 148.228 289.943 148.385 289.755 147.985C289.552 147.551 289.871 146.965 289.624 146.554C288.895 145.347 287.643 144.511 286.926 143.298C286.67 142.864 286.881 142.29 286.81 141.791C286.358 138.634 286.554 138.608 286.457 138.349C286.26 137.825 285.61 137.587 285.341 137.098C284.814 136.142 283.937 135.149 284.097 134.069C284.223 133.223 285.916 133.238 286.042 132.39Z" fill="#F0E9BF"/>
<path fill-rule="evenodd" clip-rule="evenodd" d="M270.24 208.344C271.908 215.444 271.77 215.454 272.467 217.22C276.136 226.514 277.187 225.955 277.443 226.779C278.591 230.476 275.568 229.522 262.094 248.113C261.6 247.209 259.489 247.196 260.631 243.167C261.626 239.654 262.064 230.567 263.318 223.522C264.47 220.312 264.546 220.382 265.892 217.29C266.43 216.055 267.007 215.292 267.588 212.845C268.444 209.236 269.242 209.673 270.24 208.344Z" fill="#FBFCFA"/>
<path fill-rule="evenodd" clip-rule="evenodd" d="M316.451 51.3223C316.77 51.6782 318.842 51.8569 318.385 55.3765C317.799 59.8895 318.233 59.882 318.018 64.4344C317.552 74.3177 311.67 83.1076 311.091 83.6543C309.272 85.3778 302.269 85.2263 301.859 81.1131C301.773 80.2544 301.792 80.2332 304.505 70.6437C306.828 62.4262 312.16 61.8205 316.451 51.3223Z" fill="#F9FAFA"/>
<path fill-rule="evenodd" clip-rule="evenodd" d="M301.577 264.957C296.523 272.334 285.164 282.72 281.112 285.422C280.523 285.814 280.612 285.935 273.873 290.512C269.938 293.183 262.693 297.407 261.177 298.558C250.595 306.602 261.727 291.015 262.105 290.486C262.243 290.294 262.273 290.357 263.944 288.169C264.709 288.018 265.272 289.361 266.035 289.21C267.232 288.972 267.975 287.704 269.064 287.154C269.505 286.932 270.085 287.151 270.53 286.938C270.686 286.864 270.535 286.759 271.96 285.322C277.428 279.803 279.007 279.57 283.8 275.846C286.963 273.39 299.275 263.323 299.353 263.332C300.266 263.429 300.663 264.86 301.577 264.957Z" fill="#F8F8F0"/>
<path fill-rule="evenodd" clip-rule="evenodd" d="M273.671 400.662C273.999 401.327 275.006 401.474 275.335 402.14C275.951 403.387 264.013 425.957 270.767 447.893C266.906 449.303 266.913 449.222 263.116 450.886C262.985 449.918 262.677 450.033 262.547 449.075C262.461 448.436 262.771 448.478 262.706 447.854C262.458 445.42 260.383 441.251 262.598 427.787C263.833 420.279 269.03 407.736 273.671 400.662Z" fill="#FBFAEF"/>
<path fill-rule="evenodd" clip-rule="evenodd" d="M256.679 230.791C257.073 231.592 258.286 231.771 258.68 232.574C259.114 233.458 257.566 233.304 256.169 244.647C255.796 247.676 255.899 247.665 256.088 250.709C256.181 252.204 256.02 252.263 256.953 253.653C257.23 254.067 257.56 254.444 257.838 254.857C256.712 256.526 253.07 261.931 248.566 278.24C247.981 277.48 246.914 277.191 246.329 276.429C245.928 275.908 246.214 273.659 246.244 273.42C248.352 256.782 248.172 256.776 248.431 255.343C250.42 244.292 255.205 233.36 256.679 230.791Z" fill="#F9F8EB"/>
<path fill-rule="evenodd" clip-rule="evenodd" d="M281.126 38.587C276.398 43.0032 276.622 43.191 272.593 48.2659C271.582 49.5396 271.512 49.4532 270.659 50.8526C270.132 51.7189 268.033 54.0981 267.794 54.3707C267.655 54.5267 265.969 56.4379 265.224 54.881C265.123 54.6705 265.403 54.407 265.327 54.1859C265.263 54.0027 264.821 54.0254 264.862 53.8361C265.103 52.7351 270.723 45.2976 272.05 43.1758C278.307 33.1653 292.086 24.5541 302.511 29.4761C302.685 29.5579 303.788 30.0788 304.114 31.2662C304.188 31.5403 304.033 31.9583 303.762 32.0431C303.558 32.1097 303.587 31.7599 301.088 31.772C295.587 31.7977 290.05 31.245 281.126 38.587Z" fill="#F7E68C"/>
<path fill-rule="evenodd" clip-rule="evenodd" d="M261.118 133.371C261.524 134.181 262.295 134.772 262.7 135.584C263.093 136.367 264.236 152.964 263.545 153.757C262.864 154.54 261.598 154.643 260.915 155.428C260.403 154.354 256.677 146.548 255.204 141.707C254.715 140.098 254.512 140.207 253.939 138.617C253.68 137.898 253.665 137.106 253.406 136.386C258.119 134.621 260.506 133.626 261.118 133.371Z" fill="#FAFBF7"/>
<path fill-rule="evenodd" clip-rule="evenodd" d="M263.323 223.521C262.069 230.566 261.631 239.652 260.636 243.166C259.494 247.194 261.605 247.208 262.099 248.112C260.027 251.524 260.056 251.497 257.842 254.856C257.565 254.443 257.234 254.066 256.957 253.652C256.024 252.262 256.185 252.203 256.093 250.708C255.903 247.664 255.8 247.675 256.173 244.646C257.571 233.302 259.118 233.457 258.684 232.572C258.29 231.77 257.077 231.591 256.683 230.79C257.954 229.048 259.446 226.801 259.679 226.449C261.161 224.216 263.279 223.555 263.323 223.521Z" fill="#FBFCFA"/>
<path fill-rule="evenodd" clip-rule="evenodd" d="M235.703 89.683C239.997 88.2791 239.919 87.8717 240.259 88.058C240.654 88.2761 240.451 89.1015 240.118 89.4059C240.051 89.4665 236.056 89.6649 235.703 89.683Z" fill="#C79D4C"/>
</svg>
